HIERARCHY
ROOT root
{
	OFFSET	0	13.1	24.9
	CHANNELS 6  Xposition Yposition Zposition Xrotation Yrotation Zrotation
	JOINT spine_1
	{
		OFFSET	0	9.99999	0
		CHANNELS 3  Xrotation Yrotation Zrotation
		JOINT spine_2
		{
			OFFSET	0	112	-10
			CHANNELS 3  Xrotation Yrotation Zrotation
			JOINT spine_3
			{
				OFFSET	0	206.5	19.3
				CHANNELS 3  Xrotation Yrotation Zrotation
				JOINT spine_4
				{
					OFFSET	0	110.4	14.6
					CHANNELS 3  Xrotation Yrotation Zrotation
					JOINT neck_1
					{
						OFFSET	0	71.8	-50.3
						CHANNELS 3  Xrotation Yrotation Zrotation
						JOINT neck_2
						{
							OFFSET	0	86.2	-25.8
							CHANNELS 3  Xrotation Yrotation Zrotation
							JOINT head_ee
							{
								OFFSET	0	179.8	-8.7
								CHANNELS 3  Xrotation Yrotation Zrotation
								End Site
								{
									OFFSET	1	0	0
								}
							}
						}
					}
					JOINT left_clavicle
					{
						OFFSET	-43.2	22.4	-70.8
						CHANNELS 3  Xrotation Yrotation Zrotation
						JOINT left_shoulder
						{
							OFFSET	-93.9	-5.79999	48.7
							CHANNELS 3  Xrotation Yrotation Zrotation
							JOINT left_elbow
							{
								OFFSET	-291.4	-30.8	15.2
								CHANNELS 3  Xrotation Yrotation Zrotation
								JOINT left_lowarm_twist
								{
									OFFSET	-110.7	-3.89999	13.6
									CHANNELS 3  Xrotation Yrotation Zrotation
									JOINT left_hand
									{
										OFFSET	-110.7	-3.89999	13.6
										CHANNELS 3  Xrotation Yrotation Zrotation
										JOINT left_ee
										{
											OFFSET	-80.8	-5.10001	12.1
											CHANNELS 3  Xrotation Yrotation Zrotation
											End Site
											{
												OFFSET	1	0	0
											}
										}
									}
								}
							}
						}
					}
					JOINT right_clavicle
					{
						OFFSET	43.2	22.4	-70.8
						CHANNELS 3  Xrotation Yrotation Zrotation
						JOINT right_shoulder
						{
							OFFSET	93.9	-5.79999	48.7
							CHANNELS 3  Xrotation Yrotation Zrotation
							JOINT right_elbow
							{
								OFFSET	291.4	-30.8	15.2
								CHANNELS 3  Xrotation Yrotation Zrotation
								JOINT right_lowarm_twist
								{
									OFFSET	110.7	-3.89999	13.6
									CHANNELS 3  Xrotation Yrotation Zrotation
									JOINT right_hand
									{
										OFFSET	110.7	-3.89999	13.6
										CHANNELS 3  Xrotation Yrotation Zrotation
										JOINT right_ee
										{
											OFFSET	80.8	-5.10001	12.1
											CHANNELS 3  Xrotation Yrotation Zrotation
											End Site
											{
												OFFSET	1	0	0
											}
										}
									}
								}
							}
						}
					}
				}
			}
		}
	}
	JOINT left_hip
	{
		OFFSET	-82.8	-127.5	0.300001
		CHANNELS 3  Xrotation Yrotation Zrotation
		JOINT left_knee
		{
			OFFSET	-28.2	-396.7	2.2
			CHANNELS 3  Xrotation Yrotation Zrotation
			JOINT left_ankle
			{
				OFFSET	-11.7	-411.3	35.4
				CHANNELS 3  Xrotation Yrotation Zrotation
				JOINT left_toes
				{
					OFFSET	0	-60	-88.6
					CHANNELS 3  Xrotation Yrotation Zrotation
					JOINT left_foot_ee
					{
						OFFSET	-22.5	-16.5	-42.2
						CHANNELS 3  Xrotation Yrotation Zrotation
						End Site
						{
							OFFSET	1	0	0
						}
					}
				}
			}
		}
	}
	JOINT right_hip
	{
		OFFSET	82.8	-127.5	0.300001
		CHANNELS 3  Xrotation Yrotation Zrotation
		JOINT right_knee
		{
			OFFSET	28.2	-396.7	2.2
			CHANNELS 3  Xrotation Yrotation Zrotation
			JOINT right_ankle
			{
				OFFSET	11.7	-411.3	35.4
				CHANNELS 3  Xrotation Yrotation Zrotation
				JOINT right_toes
				{
					OFFSET	0	-60	-88.6
					CHANNELS 3  Xrotation Yrotation Zrotation
					JOINT right_foot_ee
					{
						OFFSET	22.5	-16.5	-42.2
						CHANNELS 3  Xrotation Yrotation Zrotation
						End Site
						{
							OFFSET	1	0	0
						}
					}
				}
			}
		}
	}
}
MOTION
Frames: 16
Frame Time: 0.02
797.662 684.768 -1248.21 167.782 -69.2519 162.136 -2.84388 0.248316 0.592867 -2.84371 0.210088 0.607466 -2.84116 0.0460048 0.641119 -2.84171 0.146678 0.625809 4.45737 1.52292 0.533367 4.46211 2.15945 0.690177 -0.0 0.0 -0.0 8.61262 -16.6933 16.5415 -7.58989 12.1455 66.1092 0.440145 -12.3002 0.0474275 -15.461 -0.79352 1.80469 -0.605461 -11.7142 -9.097 -0.0 0.0 -0.0 8.35703 28.4792 -14.9412 -38.9329 59.0063 -29.0746 0.594883 16.4197 -0.0858292 -9.12768 0.409553 -1.09148 1.83933 -0.416929 -12.5511 0.0 0.0 0.0 13.7752 -10.4413 7.02087 -54.3108 -1.61797 7.86958 39.6586 22.7936 -5.06839 5.963 -0.0 -0.0 -0.0 0.0 -0.0 11.8662 -1.68815 6.57589 -27.3479 -0.136475 -4.15495 24.5092 -22.6804 3.40455 -7.61025 0.0 0.0 0.0 0.0 0.0 
829.203 686.669 -1231.0 160.156 -68.0016 154.438 -3.25508 0.461617 0.847123 -3.25477 0.406779 0.874777 -3.24781 0.160229 0.951326 -3.24894 0.308456 0.914086 3.83076 2.42011 0.634436 3.84364 3.64255 0.864759 -0.0 0.0 -0.0 7.87828 -14.1857 15.0773 -8.06458 14.1927 66.3439 0.239975 -6.77948 0.0142141 -15.8456 -0.819351 1.84659 -0.936536 -8.76386 -10.0962 -0.0 0.0 -0.0 8.46719 28.6761 -15.1613 -40.2498 59.8904 -29.6226 0.618436 17.0328 -0.0926079 -11.6901 0.555353 -1.38505 1.74811 -0.790025 -12.0762 0.0 0.0 0.0 21.9406 -11.8374 9.50458 -54.7125 -1.65689 7.91773 36.1438 24.6857 -4.77297 4.82844 -0.0 -0.0 -0.0 0.0 -0.0 1.95076 -1.20414 6.00615 -20.6044 -0.287964 -3.13178 27.5689 -23.2082 3.78354 -6.40693 0.0 0.0 0.0 0.0 0.0 
849.677 686.912 -1223.32 158.244 -69.7175 151.553 -2.97309 0.416134 1.03564 -2.97256 0.349395 1.06001 -2.96511 0.0612664 1.11442 -2.96676 0.236489 1.09077 2.88525 2.44751 1.15736 2.89591 3.28268 1.46526 -0.0 0.0 -0.0 7.88859 -12.1484 15.1952 -10.0839 14.5887 65.6916 0.292208 -8.23662 0.0210396 -17.1993 -0.912524 1.99271 -0.935538 -5.81498 -8.80943 -0.0 0.0 -0.0 7.96495 28.6466 -14.0589 -40.7937 59.977 -28.7786 0.662033 18.1571 -0.105787 -13.0744 0.639558 -1.54089 1.40272 -1.35797 -9.95642 0.0 0.0 0.0 23.923 -14.254 12.4357 -54.604 -1.64634 7.90475 34.1044 26.1383 -4.59875 7.01255 -0.0 -0.0 -0.0 0.0 -0.0 -1.79995 -2.29768 6.4621 -15.8452 -0.321975 -2.40256 29.8431 -24.8014 4.0844 -6.62792 0.0 0.0 0.0 0.0 0.0 
866.003 685.781 -1218.35 155.398 -70.8031 148.098 -2.75191 0.383192 1.00238 -2.75141 0.318635 1.02472 -2.74484 0.0448764 1.07218 -2.74638 0.213634 1.05164 1.63749 2.85077 2.16709 1.65346 3.20339 2.62217 -0.0 0.0 -0.0 7.92497 -10.8865 15.3227 -11.4145 14.7237 65.7886 0.340747 -9.58119 0.028557 -19.0251 -1.04363 2.18627 -1.27914 -0.205598 -8.6664 -0.0 0.0 -0.0 7.19697 28.7384 -12.3635 -34.9358 58.9473 -31.1436 0.605985 16.7092 -0.0889943 -16.2458 0.846539 -1.89002 0.485143 -3.90371 -4.84123 0.0 0.0 0.0 26.3165 -15.0065 14.4439 -53.1864 -1.51085 7.73338 34.0868 26.2753 -4.60092 6.8449 -0.0 -0.0 -0.0 0.0 -0.0 -4.7104 -1.75393 6.84525 -12.7531 -0.311583 -1.92831 31.1781 -25.8881 4.26527 -7.30676 0.0 0.0 0.0 0.0 0.0 
879.447 685.656 -1212.98 155.181 -72.9711 147.023 -2.40628 0.23912 1.21257 -2.40547 0.161483 1.22532 -2.40101 -0.151189 1.22663 -2.40311 0.0444175 1.23512 0.964373 2.43497 2.60703 0.982342 2.14389 3.06519 -0.0 0.0 -0.0 7.35281 -7.33347 14.2198 -13.0923 13.6361 65.6174 0.533062 -14.7922 0.0691963 -21.2243 -1.20967 2.41378 -0.686151 5.09373 -2.37373 -0.0 0.0 -0.0 6.65008 28.5269 -11.1909 -38.6467 58.7434 -26.7148 0.73961 20.1219 -0.131226 -19.0278 1.04383 -2.18655 -0.879196 -8.70456 2.05762 0.0 0.0 0.0 29.0671 -17.1753 16.5019 -48.998 -1.13603 7.20849 31.0533 26.4443 -4.26608 7.5195 -0.0 -0.0 -0.0 0.0 -0.0 -7.77878 -4.29554 6.907 -4.78441 -0.167209 -0.715013 32.7593 -26.2055 4.45247 -8.1199 0.0 0.0 0.0 0.0 0.0 
895.554 684.167 -1205.15 155.21 -73.9715 146.578 -2.29037 0.183664 1.39097 -2.2893 0.0947892 1.39984 -2.28578 -0.256799 1.37935 -2.28844 -0.0357565 1.40259 1.06964 2.41262 2.92228 1.09151 1.83537 3.40694 -0.0 0.0 -0.0 7.12269 -4.50575 13.8028 -14.7599 13.6135 65.0107 0.669098 -18.3379 0.108 -22.4839 -1.30869 2.5412 -0.0918766 6.49809 2.111 -0.0 0.0 -0.0 6.26745 26.7564 -10.5464 -38.8992 59.0443 -26.5889 0.858342 23.0349 -0.174907 -23.3427 1.3778 -2.62682 -1.8176 -12.1418 6.49969 0.0 0.0 0.0 31.0521 -17.6725 17.3086 -44.5463 -0.781035 6.62266 28.4627 26.5042 -3.96401 7.61449 -0.0 -0.0 -0.0 0.0 -0.0 -10.0076 -4.73084 6.89284 -1.0816 -0.0430221 -0.160407 33.7597 -26.2527 4.56447 -8.90691 0.0 0.0 0.0 0.0 0.0 
911.023 683.105 -1201.65 158.745 -73.7583 149.603 -2.08081 0.299432 1.44793 -2.07967 0.2067 1.46404 -2.07304 -0.158914 1.47 -2.07604 0.0752126 1.47664 0.349928 2.27095 2.3331 0.36465 2.11627 2.75039 -0.0 0.0 -0.0 6.63174 -1.29806 12.8521 -14.6424 15.3854 64.8849 0.750087 -20.3836 0.134853 -22.8737 -1.33989 2.58018 0.418399 8.75297 6.34532 -0.0 0.0 -0.0 5.64773 25.0245 -9.37174 -33.4577 59.6827 -31.5384 0.815719 22.0027 -0.158582 -27.3006 1.71261 -3.00774 -2.86459 -14.1094 12.1781 0.0 0.0 0.0 33.0214 -18.457 18.001 -39.3567 -0.426347 5.90802 22.9565 27.623 -3.30422 7.1312 -0.0 -0.0 -0.0 0.0 -0.0 -12.896 -4.55424 7.09571 4.78682 0.226508 0.699277 31.9787 -26.3569 4.36911 -10.8162 0.0 0.0 0.0 0.0 0.0 
927.54 680.677 -1196.84 159.729 -74.3469 150.249 -1.81373 0.360932 1.51446 -1.81249 0.263843 1.53436 -1.804 -0.113467 1.55273 -1.80734 0.133151 1.55117 0.626459 1.97533 2.502 0.642515 1.4364 2.90494 -0.0 0.0 -0.0 6.11605 1.13012 11.8601 -15.4703 16.005 64.897 0.818281 -22.0651 0.159543 -23.9668 -1.42882 2.68839 1.35822 7.98614 12.2178 -0.0 0.0 -0.0 5.90513 23.6059 -10.0714 -30.1367 56.0925 -30.4207 0.780616 21.1411 -0.145675 -31.6207 2.10725 -3.39625 -3.95049 -16.1874 17.9844 0.0 0.0 0.0 33.3745 -19.0902 18.67 -35.9952 -0.231838 5.42952 20.6533 27.3182 -2.99593 8.95413 -0.0 -0.0 -0.0 0.0 -0.0 -14.0591 -4.06665 7.20754 5.56052 0.268584 0.810464 34.4436 -26.501 4.64657 -11.5966 0.0 0.0 0.0 0.0 0.0 
943.548 676.924 -1184.19 156.572 -74.8945 147.902 -1.95487 0.243026 1.46512 -1.95369 0.149314 1.47761 -1.94856 -0.214702 1.46954 -1.95157 0.0200522 1.485 0.983208 1.58843 3.22525 1.01124 0.130891 3.65876 -0.0 0.0 -0.0 5.99316 1.30848 11.623 -17.4585 12.171 64.9685 0.818373 -22.0674 0.159578 -24.6617 -1.48642 2.75629 2.12794 6.83783 16.9811 -0.0 0.0 -0.0 7.0394 23.1198 -12.595 -31.1884 51.9173 -25.4981 0.907815 24.2134 -0.194733 -33.2569 2.26423 -3.53552 -5.12037 -21.282 22.1505 0.0 0.0 0.0 32.8196 -21.2712 18.3536 -30.1747 0.0373344 4.57741 17.1201 26.7251 -2.50898 7.86327 -0.0 -0.0 -0.0 0.0 -0.0 -14.8385 -5.90182 6.05525 3.14067 0.142016 0.460919 37.0739 -25.7116 4.89989 -11.8158 0.0 0.0 0.0 0.0 0.0 
959.064 673.547 -1180.36 159.839 -74.2902 151.213 -1.80929 0.331933 1.56309 -1.80796 0.231809 1.58103 -1.80009 -0.155706 1.59033 -1.8036 0.0973779 1.59496 0.939244 1.02041 2.99781 0.965666 -0.682678 3.35688 -0.0 0.0 -0.0 5.30194 3.30557 10.3253 -16.3277 15.8083 66.332 0.831441 -22.3852 0.164521 -24.9833 -1.51336 2.78749 2.51882 8.44204 20.2451 -0.0 0.0 -0.0 6.76887 22.5986 -12.0506 -25.6164 52.048 -29.4584 0.819348 22.0911 -0.159944 -36.5811 2.59512 -3.80445 -5.24834 -20.3283 23.6843 0.0 0.0 0.0 32.8347 -21.3271 17.9562 -24.0984 0.224516 3.66411 16.8561 27.1038 -2.47853 9.48245 -0.0 -0.0 -0.0 0.0 -0.0 -15.8924 -4.63715 6.16733 3.86587 0.178391 0.566218 39.0264 -24.9467 5.0717 -12.0011 0.0 0.0 0.0 0.0 0.0 
968.405 668.145 -1171.49 161.034 -74.2237 152.847 -2.18757 0.340966 1.63892 -2.1861 0.236001 1.65728 -2.1775 -0.180971 1.66419 -2.18136 0.0840901 1.67189 0.888479 0.527993 2.5468 0.909532 -1.17756 2.81843 -0.0 0.0 -0.0 5.0876 4.0135 9.93379 -15.8559 14.4097 65.8424 0.807515 -21.8022 0.155522 -25.2567 -1.5364 2.81388 2.90382 6.48827 22.2594 -0.0 0.0 -0.0 7.34437 22.0434 -13.3602 -25.5253 50.1219 -27.1034 0.966208 25.5768 -0.219316 -37.6517 2.70496 -3.88696 -6.17304 -23.2069 27.531 0.0 0.0 0.0 31.276 -21.8804 15.2278 -10.7557 0.291273 1.62253 14.5126 26.5341 -2.14472 7.72439 -0.0 -0.0 -0.0 0.0 -0.0 -15.9111 -5.83445 5.32198 3.6394 0.166889 0.533383 41.3458 -24.3804 5.27482 -12.6582 0.0 0.0 0.0 0.0 0.0 
979.593 665.969 -1163.47 164.082 -73.8446 156.18 -2.06657 0.289483 1.66316 -2.06505 0.18308 1.67821 -2.05798 -0.233958 1.67188 -2.06188 0.0329808 1.68784 1.1861 0.445515 1.51544 1.19309 -0.475048 1.6936 -0.0 0.0 -0.0 5.07049 4.3574 9.90825 -14.7065 14.3031 65.505 0.689024 -18.846 0.114353 -25.3316 -1.54274 2.8211 3.18835 6.87065 24.4323 -0.0 0.0 -0.0 7.67194 21.7698 -14.103 -23.2526 49.2007 -28.6872 0.983329 25.9708 -0.226761 -39.2427 2.87098 -4.00574 -6.71182 -25.1841 29.3794 0.0 0.0 0.0 29.9343 -21.4611 13.2565 -2.78569 0.104632 0.414667 11.8209 26.3127 -1.76066 9.78469 -0.0 -0.0 -0.0 0.0 -0.0 -16.172 -5.19067 4.72003 3.80606 0.175341 0.557551 42.2411 -24.4817 5.36033 -12.7684 0.0 0.0 0.0 0.0 0.0 
1000.67 661.459 -1154.41 164.666 -73.2395 157.7 -2.40095 0.246894 1.40863 -2.39986 0.156768 1.42148 -2.39464 -0.204836 1.41535 -2.39743 0.0212403 1.42994 2.8409 0.465165 1.58222 2.84871 -0.536079 1.79419 -0.0 0.0 -0.0 5.31919 4.74694 10.3795 -19.4055 6.57169 65.8624 0.758352 -20.5894 0.137745 -20.9254 -1.18659 2.38323 3.30881 4.06203 24.2888 -0.0 0.0 -0.0 7.91505 21.1794 -14.6872 -24.4837 46.9336 -25.9225 1.18061 30.3197 -0.319888 -37.7522 2.71534 -3.89459 -7.17906 -28.1708 29.5965 0.0 0.0 0.0 28.3427 -21.5821 11.6125 5.08072 -0.242313 -0.741577 4.14117 25.3349 -0.627288 7.8588 -0.0 -0.0 -0.0 0.0 -0.0 -17.055 -6.38069 3.95707 2.10596 0.0924342 0.309917 42.0963 -22.8611 5.2959 -13.1677 0.0 0.0 0.0 0.0 0.0 
1020.89 659.755 -1144.83 168.389 -72.2359 161.366 -2.39438 0.385753 1.68984 -2.39283 0.277458 1.71096 -2.38252 -0.160232 1.72588 -2.38666 0.114307 1.72953 4.23259 0.145546 0.492105 4.23336 -0.17531 0.565383 -0.0 0.0 -0.0 5.50409 4.63561 10.7243 -14.1365 14.2801 64.8642 0.524565 -14.5666 0.0670434 -27.4908 -1.72936 3.02545 3.01766 5.79585 22.8225 -0.0 0.0 -0.0 8.59742 20.7516 -16.2265 -18.2725 43.3962 -31.6288 1.20692 30.8728 -0.333277 -42.1726 3.18513 -4.21229 -8.1771 -29.6821 34.6486 0.0 0.0 0.0 28.1536 -20.0591 11.2268 5.44951 -0.262454 -0.794545 10.0504 26.2503 -1.50487 11.6388 -0.0 -0.0 -0.0 0.0 -0.0 -17.0883 -5.23166 4.20193 0.493043 0.0206163 0.0728518 42.3337 -24.2661 5.36157 -12.3114 0.0 0.0 0.0 0.0 0.0 
1043.84 655.123 -1139.41 170.837 -71.3581 164.372 -2.22455 0.288655 1.62497 -2.2231 0.184684 1.64004 -2.21612 -0.227555 1.63464 -2.21984 0.0334259 1.65006 6.2472 0.343902 -0.507048 6.2499 1.03279 -0.575479 -0.0 0.0 -0.0 5.5938 5.86833 10.8993 -14.4659 13.9181 64.9096 0.4222 -11.8131 0.043679 -29.5793 -1.91711 3.21635 2.85674 6.30884 21.8612 -0.0 0.0 -0.0 9.06774 21.7736 -17.1854 -16.8194 40.3194 -33.5224 1.25382 31.8433 -0.357684 -42.5253 3.22364 -4.23607 -8.63845 -30.2112 37.248 0.0 0.0 0.0 28.0485 -19.8005 10.6511 5.38573 -0.258947 -0.785394 11.7028 27.8672 -1.76037 14.9368 -0.0 -0.0 -0.0 0.0 -0.0 -17.0202 -4.27773 4.30105 -2.46507 -0.0936189 -0.366694 42.3115 -23.0784 5.32181 -11.1159 0.0 0.0 0.0 0.0 0.0 
1064.64 650.998 -1131.18 171.712 -70.2896 165.79 -2.245 0.439321 1.62067 -2.2436 0.335318 1.64533 -2.23209 -0.0833379 1.67708 -2.23597 0.182533 1.6692 7.49994 0.148009 -1.53875 7.51326 1.62961 -1.81151 -0.0 0.0 -0.0 5.59397 6.05549 10.9002 -14.7747 14.4779 64.7381 0.379777 -10.6547 0.035414 -31.1139 -2.05944 3.35222 2.37471 7.15585 18.7925 -0.0 0.0 -0.0 9.52005 20.839 -18.2675 -15.0581 38.051 -35.5631 1.30184 32.8162 -0.383367 -43.7176 3.35493 -4.3147 -9.0778 -30.4495 40.165 0.0 0.0 0.0 27.5391 -19.4629 9.48332 4.46954 -0.209689 -0.653523 12.6738 26.4655 -1.88407 17.6567 -0.0 -0.0 -0.0 0.0 -0.0 -17.0356 -3.9981 4.24437 -5.20765 -0.179113 -0.778876 42.2717 -22.5426 5.30214 -10.7251 0.0 0.0 0.0 0.0 0.0 
